<svg data-v-d3f97b9e="" xmlns="http://www.w3.org/2000/svg" viewBox="0 0 94.86207300797173 60"><!----><!----><!----><!----><g data-v-d3f97b9e="" id="edc2a751-0242-4795-9d59-abdaa8f9d828" transform="matrix(1.1819788623164882,0,0,1.1819788623164882,-11.771332724736041,-29.13104416910147)" stroke="none" fill="white"><path d="M90.216 44.946c-3.38-4.973-8.4-5.33-12.473-5.464-.067-.058-.133-.116-.2-.172 3.112-4 7.14-2.441 7.14-2.441-4.819-4.339-10.214-3.008-14.34-2.136 2.115-4.955 6.596-4.271 6.596-4.271-6.822-3.854-12.667.551-16.705 1.963l-.229-.028c.803-5.322 5.305-5.791 5.305-5.791-7.34-1.951-11.837 3.377-15.342 5.876-.181.023-.357.057-.538.083-1.281-6.071 3.401-7.919 3.401-7.919-9.416.107-11.625 9.829-15.184 11.538v.116c-.201.107-.411.204-.607.313v-.001c-10.257 6.277-17.302 4.122-20.796 2.062.008-.094.028-.183.028-.278a3.157 3.157 0 0 0-6.313 0 3.153 3.153 0 0 0 3.103 3.151c5.14 10.447 16.044 19.162 20.544 22.459v7.925a2.854 2.854 0 1 0 5.708 0v-4.507c.982.452 2.005.867 3.071 1.234V72.5a2.853 2.853 0 1 0 5.707 0v-2.385c2.314.41 4.732.648 7.236.648 2.196 0 4.331-.174 6.385-.491v2.229a2.854 2.854 0 1 0 5.707 0v-3.552a34.453 34.453 0 0 0 2.854-1.04v4.593a2.853 2.853 0 0 0 5.707 0v-7.714c4.901-3.468 7.918-8.165 7.918-13.338 0-2.007-.452-3.941-1.292-5.761 4.013-3.258 7.609-.743 7.609-.743zm-52.705 1.099a2.622 2.622 0 1 1 .002-5.244 2.622 2.622 0 0 1-.002 5.244zm6.795-5.243a2.622 2.622 0 1 1 0 5.244 2.622 2.622 0 0 1 0-5.244z"></path></g><!----></svg>