<svg data-v-d3f97b9e="" xmlns="http://www.w3.org/2000/svg" viewBox="0 0 421 90"><!----><!----><!----><g data-v-d3f97b9e="" id="d3412e5c-0147-46fb-9fac-25e7a3348b0c" fill="#808080" transform="matrix(4.622496310940746,0,0,4.622496310940746,161.22992688266237,0.023112146887001472)"><path d="M0.23 12.22C0.71 12.88 1.72 13.34 2.96 13.34C4.59 13.34 5.60 12.54 5.60 11.35C5.60 9.00 2.10 9.79 2.10 8.36C2.10 7.86 2.48 7.53 3.25 7.51C3.73 7.50 4.29 7.73 4.68 8.11L5.45 7.22C5.02 6.75 4.17 6.36 3.19 6.36C1.62 6.36 0.66 7.19 0.66 8.41C0.66 10.82 4.10 10.09 4.10 11.38C4.10 11.87 3.69 12.21 2.87 12.21C2.22 12.21 1.62 11.97 1.14 11.35ZM10.02 11.93C9.93 11.99 9.70 12.06 9.42 12.06C8.97 12.06 8.69 11.80 8.69 11.20L8.69 7.67L10.09 7.67L10.09 6.53L8.69 6.53L8.69 4.64L7.28 4.64L7.28 6.53L6.40 6.53L6.40 7.67L7.28 7.67L7.28 11.32C7.28 12.91 8.27 13.27 9.09 13.27C9.61 13.27 10.03 13.17 10.21 13.08ZM15.84 6.53L15.84 10.57C15.72 11.74 14.93 12.12 14.19 12.12C13.17 12.12 12.73 11.39 12.73 10.31L12.73 6.53L11.32 6.53L11.32 10.63C11.32 12.69 12.64 13.33 13.80 13.33C14.73 13.33 15.44 12.95 15.84 12.37L16.01 13.15L17.25 13.15L17.25 6.53ZM23.93 3.24L23.93 7.32C23.42 6.72 22.69 6.36 21.74 6.36C20.02 6.36 18.65 7.69 18.65 9.84C18.65 12.00 20.02 13.31 21.74 13.31C22.74 13.31 23.51 12.91 24.02 12.25L24.19 13.15L25.35 13.15L25.35 3.24ZM22.08 12.12C20.88 12.12 20.10 11.14 20.10 9.84C20.10 8.55 20.88 7.55 22.08 7.55C23.32 7.55 24.12 8.55 24.12 9.84C24.12 11.14 23.32 12.12 22.08 12.12ZM31.65 6.53L29.69 11.49L27.72 6.53L26.24 6.53L29.01 13.20L28.57 14.32C28.36 14.82 28.10 15.01 27.80 15.01C27.61 15.01 27.40 14.93 27.31 14.88L27.07 16.06C27.21 16.13 27.52 16.22 27.87 16.22C28.48 16.22 29.23 15.98 29.68 14.86L33.16 6.53ZM37.51 6.36C36.56 6.36 35.86 6.75 35.45 7.32L35.45 3.24L34.04 3.24L34.04 13.15L35.45 13.15L35.45 9.42C35.45 8.02 36.31 7.57 37.11 7.57C38.14 7.57 38.57 8.30 38.57 9.38L38.57 13.15L39.99 13.15L39.99 9.06C39.99 7 38.66 6.36 37.51 6.36ZM44.86 13.34C46.94 13.34 48.39 11.81 48.39 9.84C48.39 7.89 46.94 6.36 44.86 6.36C42.74 6.36 41.30 7.89 41.30 9.84C41.30 11.81 42.74 13.34 44.86 13.34ZM44.86 12.13C43.63 12.13 42.77 11.14 42.77 9.84C42.77 8.56 43.63 7.57 44.86 7.57C46.07 7.57 46.93 8.56 46.93 9.84C46.93 11.14 46.07 12.13 44.86 12.13ZM52.75 12.16C51.30 12.16 50.91 12.07 50.91 11.62C50.91 11.40 51.11 11.20 51.39 11.07C51.76 11.20 52.15 11.26 52.59 11.26C54.24 11.26 55.45 10.31 55.45 8.79C55.45 8.20 55.24 7.69 54.91 7.28C55.07 6.99 55.52 6.88 55.96 7L56.16 6.01C55.55 5.86 54.60 5.92 54.16 6.71C53.73 6.47 53.19 6.36 52.59 6.36C50.91 6.36 49.73 7.32 49.73 8.79C49.73 9.52 50.01 10.12 50.49 10.54C50.05 10.82 49.70 11.26 49.70 11.84C49.70 12.22 49.90 12.60 50.40 12.88C49.69 13.17 49.26 13.75 49.26 14.44C49.26 15.72 50.69 16.22 52.63 16.22C54.67 16.22 56 15.53 56 14.19C56 12.67 54.40 12.16 52.75 12.16ZM52.59 7.44C53.49 7.44 54.00 8.05 54.00 8.79C54.00 9.55 53.48 10.18 52.59 10.18C51.70 10.18 51.17 9.55 51.17 8.79C51.17 8.05 51.68 7.44 52.59 7.44ZM52.62 15.17C51.58 15.17 50.76 14.98 50.76 14.20C50.76 13.78 51.00 13.40 51.54 13.21C51.80 13.26 52.09 13.27 52.41 13.27C53.67 13.27 54.48 13.45 54.48 14.20C54.48 14.90 53.75 15.17 52.62 15.17Z"></path></g><!----><g data-v-d3f97b9e="" id="02ecfcbe-eb22-4291-b01a-c978f422d6bd" transform="matrix(1.7729682934747322,0,0,1.7729682934747322,-16.844549393424245,-43.05057206725084)" stroke="none" fill="#808080"><path d="M90.216 44.946c-3.38-4.973-8.4-5.33-12.473-5.464-.067-.058-.133-.116-.2-.172 3.112-4 7.14-2.441 7.14-2.441-4.819-4.339-10.214-3.008-14.34-2.136 2.115-4.955 6.596-4.271 6.596-4.271-6.822-3.854-12.667.551-16.705 1.963l-.229-.028c.803-5.322 5.305-5.791 5.305-5.791-7.34-1.951-11.837 3.377-15.342 5.876-.181.023-.357.057-.538.083-1.281-6.071 3.401-7.919 3.401-7.919-9.416.107-11.625 9.829-15.184 11.538v.116c-.201.107-.411.204-.607.313v-.001c-10.257 6.277-17.302 4.122-20.796 2.062.008-.094.028-.183.028-.278a3.157 3.157 0 0 0-6.313 0 3.153 3.153 0 0 0 3.103 3.151c5.14 10.447 16.044 19.162 20.544 22.459v7.925a2.854 2.854 0 1 0 5.708 0v-4.507c.982.452 2.005.867 3.071 1.234V72.5a2.853 2.853 0 1 0 5.707 0v-2.385c2.314.41 4.732.648 7.236.648 2.196 0 4.331-.174 6.385-.491v2.229a2.854 2.854 0 1 0 5.707 0v-3.552a34.453 34.453 0 0 0 2.854-1.04v4.593a2.853 2.853 0 0 0 5.707 0v-7.714c4.901-3.468 7.918-8.165 7.918-13.338 0-2.007-.452-3.941-1.292-5.761 4.013-3.258 7.609-.743 7.609-.743zm-52.705 1.099a2.622 2.622 0 1 1 .002-5.244 2.622 2.622 0 0 1-.002 5.244zm6.795-5.243a2.622 2.622 0 1 1 0 5.244 2.622 2.622 0 0 1 0-5.244z"></path></g><!----></svg>